<svg width="80" height="63" viewBox="0 0 80 63" fill="none" xmlns="http://www.w3.org/2000/svg">
<path d="M1.42339 46.7798C2.68713 46.0812 3.17924 47.221 2.36022 47.453C0.549566 47.9659 1.1176 50.4426 2.92869 50.9197C4.22824 51.262 7.7962 50.7927 8.68079 50.5702C8.85721 50.4927 10.582 50.4219 12.3581 50.4036C14.1342 50.3852 16.9614 51.1477 17.7149 51.2579C18.4685 51.3683 19.6974 51.5888 20.4597 51.5979C21.2223 51.6071 22.4738 51.12 22.4963 51.1154C22.5186 51.1108 22.5814 51.0421 22.7295 50.8675C22.8776 50.6928 23.3663 50.3484 23.4022 50.353C23.4382 50.3576 23.492 50.4817 23.5189 50.7021C23.5457 50.9226 23.4292 51.0788 23.4292 51.0788C23.4292 51.0788 24.1244 50.895 24.1244 51.0051C24.1244 51.1154 23.9405 51.4369 23.9225 51.4691C23.9047 51.5014 24.6402 52.0664 24.8241 52.3283C25.008 52.59 24.9363 52.5762 24.9901 52.8842C25.0439 53.1918 25.5148 53.9727 25.5328 54.0509C25.5508 54.1289 25.5373 54.1426 25.4611 54.207C25.3847 54.2714 25.3983 54.2345 25.3086 54.3219C25.2188 54.4092 24.8958 54.8087 24.5192 54.9926C24.1424 55.1762 24.0796 55.0201 23.7835 54.8455C23.4876 54.671 22.1062 54.8915 21.8459 55.0937C21.6332 55.259 21.1741 55.7074 21.0142 55.8649L20.9579 55.9206C20.9579 55.9206 20.886 56.0309 20.7965 56.4535C20.7068 56.8761 20.7426 57.2986 20.8503 57.997C20.9579 58.6952 22.0791 60.3121 22.2496 60.45C22.42 60.5877 22.725 60.7347 22.9403 60.9737C23.1556 61.2125 22.9672 61.3595 22.7339 61.4331C22.5008 61.5065 21.9266 61.3871 21.7472 61.3135C21.5679 61.24 21.4782 60.7256 20.886 60.303C20.2941 59.8804 19.3612 59.1086 19.2176 58.7228C19.0741 58.3368 18.9485 57.2712 18.9485 57.2712C18.9485 57.2712 18.8228 57.5652 18.4282 58.0612C18.0334 58.5573 17.1184 59.3842 17.1184 59.7334C17.1184 60.0825 17.2261 60.6521 17.3517 60.8726C17.4772 61.093 17.6568 61.1114 17.8181 61.1665L17.9001 61.1937C18.0385 61.2401 18.183 61.3013 18.3025 61.5157C18.4461 61.7729 18.2846 61.8465 18.0156 61.8465C17.7465 61.8465 17.3697 61.9751 16.9032 61.7914C16.4368 61.6075 15.5756 60.0458 15.3783 59.6599C15.181 59.274 15.6115 58.5575 15.791 58.2266C15.9703 57.8959 16.2215 57.4549 16.2215 57.4549C16.2215 57.4549 14.571 57.4734 13.7099 57.2529C12.8487 57.0323 11.8603 56.959 11.8603 56.959C11.8603 56.959 11.7885 57.3633 11.6451 57.9512C11.5015 58.5393 10.8198 59.2192 10.7479 59.4396C10.6762 59.6601 11.1427 60.1194 11.4117 60.4135C11.6808 60.7074 12.2191 60.9096 12.4344 61.0566C12.6497 61.2036 12.9008 61.4424 12.7572 61.7364C12.6137 62.0305 12.4882 61.7732 12.2371 61.8283C11.9858 61.8835 11.358 61.9752 10.9274 61.8835C10.4968 61.7915 10.4789 61.2402 9.90477 60.7442C9.33068 60.248 8.73863 59.6968 8.79243 59.3662C8.84622 59.0353 8.91809 57.547 8.90012 57.4552C8.88215 57.3633 8.14657 57.9697 7.3572 58.3554C6.56783 58.7414 4.95327 59.1366 4.85455 59.403C4.75585 59.6694 4.43297 60.9005 4.48677 61.2679C4.54056 61.6354 4.63927 61.8467 4.73799 62.0396L4.77969 62.1214C4.83634 62.2355 4.82764 62.2495 4.73799 62.3338C4.63029 62.4348 3.8499 62.3429 3.67943 62.1039C3.50907 61.8652 3.19518 60.4135 3.31175 60.092C3.42832 59.7705 4.05631 57.6573 4.28957 57.4735C4.5227 57.2896 5.36598 56.7753 5.83237 55.6177C6.20195 54.7008 6.08741 53.2881 6.24676 52.4846C3.68493 52.4601 0.434462 52.728 0.0136719 49.1032C-0.103805 48.0915 0.548894 47.2633 1.42339 46.7798ZM49.9957 0L72.7549 55.1475C73.8637 57.8318 75.8332 59.1741 78.6635 59.1741H79.0137V61.0561H50.4333V59.1741C55.7439 58.9991 58.3991 57.7443 58.3991 55.41C58.3991 54.7681 58.2823 54.1699 58.049 53.6156L53.8473 43.5051H33.3201L30.1688 51.5584C29.7603 52.6089 29.556 53.6301 29.556 54.6222C29.556 57.4817 31.8904 58.9991 36.5589 59.1741V61.0561L24.9353 61.0592C25.7504 58.7057 27.572 54.0728 27.7108 53.6988C27.8898 53.2157 28.1529 52.5498 28.1485 52.0605C28.144 51.5712 28.2911 50.8454 28.0197 49.9214C27.7484 48.9973 27.4256 48.2058 27.3781 47.7041C27.3309 47.2026 27.4829 45.8804 27.5335 45.0361C27.5843 44.1918 27.8115 43.6189 27.9172 43.5115C28.023 43.404 27.9885 43.3161 28.2787 43.2963C28.5688 43.2765 28.7321 43.2168 29.1493 43.2581C29.5664 43.2993 30.0362 43.1629 30.3905 43.1469C30.7449 43.1311 31.1211 43.1571 31.59 42.8995C32.059 42.6419 32.1404 42.4146 32.3259 42.2013C32.5114 41.9881 32.7435 41.6147 32.8205 41.4094C32.8973 41.2043 32.9422 41.0762 32.5551 40.9901C32.1681 40.9039 31.5475 40.5957 31.1184 40.5102C30.6895 40.4246 30.1699 40.316 29.959 40.1193C29.7481 39.9227 29.6526 39.6846 29.5018 39.5351C29.351 39.3856 29.2669 39.3077 28.9251 39.1935C28.5834 39.0795 27.9994 38.7296 27.7896 38.6751C27.5798 38.6205 27.3107 38.5609 27.2531 38.4444C27.1954 38.328 26.8514 37.5553 26.7082 37.198C26.5649 36.8409 26.2865 36.2351 26.1792 36.2478C26.072 36.2609 25.9704 37.2007 25.7463 37.7617C25.5222 38.3227 25.1986 38.8472 25.1861 39.1354C25.1737 39.4234 24.8946 39.878 24.6758 40.2425C24.4571 40.607 23.7178 41.9811 23.4292 42.9709C23.1407 43.9607 22.4203 45.2036 22.0521 45.5712C21.6838 45.9389 19.6037 47.2399 19.0559 47.6161C18.892 47.7287 18.7649 47.8172 18.6507 47.894L38.302 0H49.9957ZM43.2554 17.8572L34.6769 40.0038H52.4029L43.2554 17.8572Z" fill="#59443F"/>
</svg>
