<svg width="340" height="90" viewBox="0 0 340 90" fill="none" xmlns="http://www.w3.org/2000/svg">
<path d="M123.4 62.9824C123.4 63.679 123.199 64.2096 122.795 64.5742C122.398 64.9323 121.838 65.1732 121.115 65.2969V65.3848C122.027 65.5085 122.691 65.7754 123.107 66.1855C123.531 66.5957 123.742 67.1621 123.742 67.8848C123.742 68.8809 123.374 69.6491 122.639 70.1895C121.91 70.7298 120.842 71 119.436 71H114.719V60.2969H119.416C122.072 60.2969 123.4 61.1921 123.4 62.9824ZM122.121 67.7773C122.121 67.1979 121.9 66.778 121.457 66.5176C121.021 66.2507 120.295 66.1172 119.279 66.1172H116.34V69.6426H119.318C121.187 69.6426 122.121 69.0208 122.121 67.7773ZM121.818 63.1387C121.818 62.6178 121.617 62.25 121.213 62.0352C120.816 61.8138 120.21 61.7031 119.396 61.7031H116.34V64.7207H119.084C120.087 64.7207 120.793 64.597 121.203 64.3496C121.613 64.1022 121.818 63.6986 121.818 63.1387Z" fill="white"/>
<path d="M130.627 71.1953C129.045 71.1953 127.795 70.7135 126.877 69.75C125.965 68.7865 125.51 67.4486 125.51 65.7363C125.51 64.0111 125.933 62.6406 126.779 61.625C127.632 60.6094 128.775 60.1016 130.207 60.1016C131.548 60.1016 132.609 60.5443 133.391 61.4297C134.172 62.3086 134.562 63.4707 134.562 64.916V65.9414H127.189C127.222 67.1979 127.538 68.1517 128.137 68.8027C128.742 69.4538 129.592 69.7793 130.686 69.7793C131.838 69.7793 132.977 69.5384 134.104 69.0566V70.502C133.531 70.7493 132.987 70.9251 132.473 71.0293C131.965 71.14 131.35 71.1953 130.627 71.1953ZM130.188 61.459C129.328 61.459 128.641 61.7389 128.127 62.2988C127.619 62.8587 127.32 63.6335 127.229 64.623H132.824C132.824 63.6009 132.596 62.8197 132.141 62.2793C131.685 61.7324 131.034 61.459 130.188 61.459Z" fill="white"/>
<path d="M144.553 61.6836H141.076V71H139.455V61.6836H136.018V60.2969H144.553V61.6836Z" fill="white"/>
<path d="M151.193 71.1953C149.611 71.1953 148.361 70.7135 147.443 69.75C146.532 68.7865 146.076 67.4486 146.076 65.7363C146.076 64.0111 146.499 62.6406 147.346 61.625C148.199 60.6094 149.341 60.1016 150.773 60.1016C152.115 60.1016 153.176 60.5443 153.957 61.4297C154.738 62.3086 155.129 63.4707 155.129 64.916V65.9414H147.756C147.788 67.1979 148.104 68.1517 148.703 68.8027C149.309 69.4538 150.158 69.7793 151.252 69.7793C152.404 69.7793 153.544 69.5384 154.67 69.0566V70.502C154.097 70.7493 153.553 70.9251 153.039 71.0293C152.531 71.14 151.916 71.1953 151.193 71.1953ZM150.754 61.459C149.895 61.459 149.208 61.7389 148.693 62.2988C148.186 62.8587 147.886 63.6335 147.795 64.623H153.391C153.391 63.6009 153.163 62.8197 152.707 62.2793C152.251 61.7324 151.6 61.459 150.754 61.459Z" fill="white"/>
<path d="M162.883 71.1953C162.186 71.1953 161.548 71.0684 160.969 70.8145C160.396 70.554 159.914 70.1569 159.523 69.623H159.406C159.484 70.248 159.523 70.8405 159.523 71.4004V75.8047H157.902V60.2969H159.221L159.445 61.7617H159.523C159.94 61.1758 160.425 60.7526 160.979 60.4922C161.532 60.2318 162.167 60.1016 162.883 60.1016C164.302 60.1016 165.396 60.5866 166.164 61.5566C166.939 62.5267 167.326 63.8874 167.326 65.6387C167.326 67.3965 166.932 68.7637 166.145 69.7402C165.363 70.7103 164.276 71.1953 162.883 71.1953ZM162.648 61.4785C161.555 61.4785 160.764 61.7812 160.275 62.3867C159.787 62.9922 159.536 63.9557 159.523 65.2773V65.6387C159.523 67.1426 159.774 68.2201 160.275 68.8711C160.777 69.5156 161.581 69.8379 162.688 69.8379C163.612 69.8379 164.335 69.4635 164.855 68.7148C165.383 67.9661 165.646 66.9342 165.646 65.6191C165.646 64.2845 165.383 63.2624 164.855 62.5527C164.335 61.8366 163.599 61.4785 162.648 61.4785Z" fill="white"/>
<path d="M171.691 60.2969V67.084L171.623 68.8613L171.594 69.418L177.385 60.2969H179.406V71H177.893V64.457L177.922 63.168L177.971 61.8984L172.189 71H170.168V60.2969H171.691Z" fill="white"/>
<path d="M184.465 60.2969V64.7793H190.461V60.2969H192.082V71H190.461V66.1758H184.465V71H182.844V60.2969H184.465Z" fill="white"/>
<path d="M202.102 71L201.779 69.4766H201.701C201.167 70.1471 200.633 70.6029 200.1 70.8438C199.572 71.0781 198.911 71.1953 198.117 71.1953C197.056 71.1953 196.223 70.9219 195.617 70.375C195.018 69.8281 194.719 69.0501 194.719 68.041C194.719 65.8796 196.447 64.7467 199.904 64.6426L201.721 64.584V63.9199C201.721 63.0801 201.538 62.4616 201.174 62.0645C200.816 61.6608 200.24 61.459 199.445 61.459C198.553 61.459 197.544 61.7324 196.418 62.2793L195.92 61.0391C196.447 60.7526 197.023 60.528 197.648 60.3652C198.28 60.2025 198.911 60.1211 199.543 60.1211C200.819 60.1211 201.763 60.4043 202.375 60.9707C202.993 61.5371 203.303 62.4453 203.303 63.6953V71H202.102ZM198.439 69.8574C199.449 69.8574 200.24 69.5807 200.812 69.0273C201.392 68.474 201.682 67.6992 201.682 66.7031V65.7363L200.061 65.8047C198.771 65.8503 197.84 66.0521 197.268 66.4102C196.701 66.7617 196.418 67.3118 196.418 68.0605C196.418 68.6465 196.594 69.0924 196.945 69.3984C197.303 69.7044 197.801 69.8574 198.439 69.8574Z" fill="white"/>
<path d="M211.633 71.1953C210.936 71.1953 210.298 71.0684 209.719 70.8145C209.146 70.554 208.664 70.1569 208.273 69.623H208.156C208.234 70.248 208.273 70.8405 208.273 71.4004V75.8047H206.652V60.2969H207.971L208.195 61.7617H208.273C208.69 61.1758 209.175 60.7526 209.729 60.4922C210.282 60.2318 210.917 60.1016 211.633 60.1016C213.052 60.1016 214.146 60.5866 214.914 61.5566C215.689 62.5267 216.076 63.8874 216.076 65.6387C216.076 67.3965 215.682 68.7637 214.895 69.7402C214.113 70.7103 213.026 71.1953 211.633 71.1953ZM211.398 61.4785C210.305 61.4785 209.514 61.7812 209.025 62.3867C208.537 62.9922 208.286 63.9557 208.273 65.2773V65.6387C208.273 67.1426 208.524 68.2201 209.025 68.8711C209.527 69.5156 210.331 69.8379 211.438 69.8379C212.362 69.8379 213.085 69.4635 213.605 68.7148C214.133 67.9661 214.396 66.9342 214.396 65.6191C214.396 64.2845 214.133 63.2624 213.605 62.5527C213.085 61.8366 212.349 61.4785 211.398 61.4785Z" fill="white"/>
<path d="M220.539 60.2969V64.7793H226.535V60.2969H228.156V71H226.535V66.1758H220.539V71H218.918V60.2969H220.539Z" fill="white"/>
<path d="M238.176 71L237.854 69.4766H237.775C237.242 70.1471 236.708 70.6029 236.174 70.8438C235.646 71.0781 234.986 71.1953 234.191 71.1953C233.13 71.1953 232.297 70.9219 231.691 70.375C231.092 69.8281 230.793 69.0501 230.793 68.041C230.793 65.8796 232.521 64.7467 235.979 64.6426L237.795 64.584V63.9199C237.795 63.0801 237.613 62.4616 237.248 62.0645C236.89 61.6608 236.314 61.459 235.52 61.459C234.628 61.459 233.618 61.7324 232.492 62.2793L231.994 61.0391C232.521 60.7526 233.098 60.528 233.723 60.3652C234.354 60.2025 234.986 60.1211 235.617 60.1211C236.893 60.1211 237.837 60.4043 238.449 60.9707C239.068 61.5371 239.377 62.4453 239.377 63.6953V71H238.176ZM234.514 69.8574C235.523 69.8574 236.314 69.5807 236.887 69.0273C237.466 68.474 237.756 67.6992 237.756 66.7031V65.7363L236.135 65.8047C234.846 65.8503 233.915 66.0521 233.342 66.4102C232.775 66.7617 232.492 67.3118 232.492 68.0605C232.492 68.6465 232.668 69.0924 233.02 69.3984C233.378 69.7044 233.876 69.8574 234.514 69.8574Z" fill="white"/>
<path d="M243.264 71H241.369L244.445 66.4785C243.618 66.2962 242.984 65.9447 242.541 65.4238C242.105 64.8965 241.887 64.2357 241.887 63.4414C241.887 62.4648 242.215 61.6966 242.873 61.1367C243.531 60.5768 244.449 60.2969 245.627 60.2969H250.393V71H248.771V66.7227H246.066L243.264 71ZM243.469 63.4609C243.469 64.6979 244.367 65.3164 246.164 65.3164H248.771V61.7031H245.832C244.257 61.7031 243.469 62.2891 243.469 63.4609Z" fill="white"/>
<path d="M265.275 60.2969H267.053L262.434 65.4629L267.434 71H265.539L260.656 65.5801V71H259.035V60.2969H260.656V65.502L265.275 60.2969Z" fill="white"/>
<path d="M277.404 71H275.764V61.6836H272.551C272.375 64.0013 272.131 65.8405 271.818 67.2012C271.506 68.5618 271.099 69.5579 270.598 70.1895C270.103 70.821 269.471 71.1367 268.703 71.1367C268.352 71.1367 268.072 71.0977 267.863 71.0195V69.8184C268.007 69.8574 268.169 69.877 268.352 69.877C269.1 69.877 269.696 69.0859 270.139 67.5039C270.581 65.9219 270.917 63.5195 271.145 60.2969H277.404V71Z" fill="white"/>
<path d="M282.375 60.2969V67.084L282.307 68.8613L282.277 69.418L288.068 60.2969H290.09V71H288.576V64.457L288.605 63.168L288.654 61.8984L282.873 71H280.852V60.2969H282.375Z" fill="white"/>
<path d="M295.148 60.2969V64.7793H301.145V60.2969H302.766V71H301.145V66.1758H295.148V71H293.527V60.2969H295.148Z" fill="white"/>
<path d="M307.727 60.2969V67.084L307.658 68.8613L307.629 69.418L313.42 60.2969H315.441V71H313.928V64.457L313.957 63.168L314.006 61.8984L308.225 71H306.203V60.2969H307.727Z" fill="white"/>
<path d="M325.119 60.2969H326.896L322.277 65.4629L327.277 71H325.383L320.5 65.5801V71H318.879V60.2969H320.5V65.502L325.119 60.2969Z" fill="white"/>
<path d="M335.852 71L335.529 69.4766H335.451C334.917 70.1471 334.383 70.6029 333.85 70.8438C333.322 71.0781 332.661 71.1953 331.867 71.1953C330.806 71.1953 329.973 70.9219 329.367 70.375C328.768 69.8281 328.469 69.0501 328.469 68.041C328.469 65.8796 330.197 64.7467 333.654 64.6426L335.471 64.584V63.9199C335.471 63.0801 335.288 62.4616 334.924 62.0645C334.566 61.6608 333.99 61.459 333.195 61.459C332.303 61.459 331.294 61.7324 330.168 62.2793L329.67 61.0391C330.197 60.7526 330.773 60.528 331.398 60.3652C332.03 60.2025 332.661 60.1211 333.293 60.1211C334.569 60.1211 335.513 60.4043 336.125 60.9707C336.743 61.5371 337.053 62.4453 337.053 63.6953V71H335.852ZM332.189 69.8574C333.199 69.8574 333.99 69.5807 334.562 69.0273C335.142 68.474 335.432 67.6992 335.432 66.7031V65.7363L333.811 65.8047C332.521 65.8503 331.59 66.0521 331.018 66.4102C330.451 66.7617 330.168 67.3118 330.168 68.0605C330.168 68.6465 330.344 69.0924 330.695 69.3984C331.053 69.7044 331.551 69.8574 332.189 69.8574Z" fill="white"/>
<path d="M138.343 53L135.755 44.5039H122.742L120.154 53H112L124.598 17.1602H133.851L146.497 53H138.343ZM133.948 38.1562C131.556 30.4577 130.205 26.1038 129.896 25.0947C129.603 24.0856 129.391 23.2881 129.261 22.7021C128.724 24.7855 127.186 29.9368 124.646 38.1562H133.948Z" fill="white"/>
<path d="M157.63 25.7051V36.4961C157.63 37.6354 157.443 40.4186 157.068 44.8457L169.666 25.7051H178.626V53H171.424V42.1113C171.424 40.1745 171.587 37.4401 171.912 33.9082L159.363 53H150.428V25.7051H157.63ZM176.429 13.9619C176.119 17.0055 174.972 19.2272 172.986 20.627C171.001 22.0104 168.136 22.7021 164.393 22.7021C160.535 22.7021 157.679 22.0348 155.823 20.7002C153.984 19.3656 152.951 17.1195 152.723 13.9619H159.388C159.502 15.6383 159.917 16.8184 160.633 17.502C161.365 18.1693 162.667 18.5029 164.539 18.5029C166.183 18.5029 167.404 18.1367 168.201 17.4043C169.015 16.6556 169.511 15.5081 169.69 13.9619H176.429Z" fill="white"/>
<path d="M184.803 36.6426C184.803 30.3763 185.991 25.6237 188.367 22.3848C190.76 19.1296 194.487 17.0706 199.549 16.208C202.007 15.7848 205.677 15.2477 210.56 14.5967L211.414 21.0908C209.298 21.335 205.547 21.8558 200.159 22.6533C198.108 22.9788 196.578 23.4671 195.569 24.1182C194.56 24.7692 193.803 25.6969 193.299 26.9014C192.811 28.1058 192.509 29.709 192.396 31.7109H192.762C193.624 30.3763 194.764 29.3509 196.18 28.6348C197.596 27.9186 199.118 27.5605 200.745 27.5605C204.114 27.5605 206.735 28.5941 208.606 30.6611C210.478 32.7119 211.414 35.6579 211.414 39.499C211.414 43.9261 210.226 47.3685 207.85 49.8262C205.49 52.2676 202.226 53.4883 198.06 53.4883C193.893 53.4883 190.638 51.999 188.294 49.0205C185.966 46.0257 184.803 41.8997 184.803 36.6426ZM198.499 47.458C202.031 47.458 203.797 45.0247 203.797 40.1582C203.797 35.4219 202.202 33.0537 199.012 33.0537C198.133 33.0537 197.254 33.2572 196.375 33.6641C195.512 34.071 194.715 34.6081 193.982 35.2754C193.266 35.9264 192.737 36.5856 192.396 37.2529C192.396 40.557 192.924 43.0879 193.982 44.8457C195.04 46.5872 196.546 47.458 198.499 47.458Z" fill="white"/>
<path d="M223.499 39.3037C223.499 42.0055 223.938 44.0482 224.817 45.4316C225.713 46.8151 227.161 47.5068 229.163 47.5068C231.149 47.5068 232.573 46.8232 233.436 45.4561C234.314 44.0726 234.754 42.0218 234.754 39.3037C234.754 36.6019 234.314 34.5755 233.436 33.2246C232.557 31.8737 231.116 31.1982 229.114 31.1982C227.129 31.1982 225.696 31.8737 224.817 33.2246C223.938 34.5592 223.499 36.5856 223.499 39.3037ZM242.371 39.3037C242.371 43.7471 241.199 47.222 238.855 49.7285C236.512 52.235 233.248 53.4883 229.065 53.4883C226.445 53.4883 224.134 52.9186 222.132 51.7793C220.13 50.6237 218.592 48.9717 217.518 46.8232C216.443 44.6748 215.906 42.1683 215.906 39.3037C215.906 34.8441 217.07 31.3773 219.397 28.9033C221.725 26.4294 224.996 25.1924 229.212 25.1924C231.832 25.1924 234.144 25.762 236.146 26.9014C238.147 28.0407 239.686 29.6764 240.76 31.8086C241.834 33.9408 242.371 36.4391 242.371 39.3037Z" fill="white"/>
<path d="M272.962 53H265.516V31.2959H258.655C258.134 37.3994 257.5 41.9567 256.751 44.9678C256.002 47.9626 255.001 50.1354 253.748 51.4863C252.511 52.821 250.883 53.4883 248.865 53.4883C247.14 53.4883 245.724 53.2279 244.617 52.707V46.75C245.415 47.0755 246.212 47.2383 247.01 47.2383C247.938 47.2383 248.711 46.571 249.329 45.2363C249.964 43.9017 250.525 41.68 251.014 38.5713C251.518 35.4463 251.95 31.1576 252.308 25.7051H272.962V53Z" fill="white"/>
<path d="M288.001 25.7051V36.4961C288.001 37.6354 287.814 40.4186 287.439 44.8457L300.037 25.7051H308.997V53H301.795V42.1113C301.795 40.1745 301.958 37.4401 302.283 33.9082L289.734 53H280.799V25.7051H288.001Z" fill="white"/>
<path d="M339.417 25.7051V31.2959H330.481V53H323.035V31.2959H314.075V25.7051H339.417Z" fill="white"/>
<path fill-rule="evenodd" clip-rule="evenodd" d="M45 0C20.1472 0 0 20.1472 0 45C0 69.8528 20.1472 90 45 90C69.8528 90 90 69.8528 90 45C90 20.1472 69.8528 0 45 0ZM13.7923 55.034C14.4142 54.8578 14.0405 53.9923 13.0809 54.5228C12.4168 54.89 11.9212 55.5189 12.0104 56.2871C12.3075 58.8468 14.463 58.8502 16.3281 58.8531C16.4685 58.8533 16.6073 58.8535 16.7436 58.8548C16.6981 59.0838 16.682 59.378 16.6648 59.6931C16.636 60.2172 16.6042 60.799 16.4289 61.2339C16.1146 62.0141 15.5748 62.4095 15.3336 62.5862C15.303 62.6086 15.2772 62.6275 15.2573 62.6432C15.1189 62.7523 14.7973 63.7565 14.6212 64.3064C14.572 64.46 14.5341 64.5782 14.5148 64.6315C14.4263 64.8757 14.6647 65.978 14.794 66.1593C14.9235 66.3408 15.5161 66.4106 15.5978 66.3339C15.6659 66.2699 15.6725 66.2592 15.6295 66.1726L15.5978 66.1105C15.5229 65.964 15.4479 65.8036 15.4071 65.5245C15.3662 65.2455 15.6114 64.3106 15.6864 64.1083C15.7305 63.9892 16.1735 63.8362 16.6528 63.6708C16.9877 63.5551 17.3402 63.4334 17.5868 63.3128C17.9073 63.1562 18.2161 62.9517 18.4362 62.806C18.6277 62.6792 18.7521 62.5968 18.7584 62.6293C18.7721 62.699 18.7175 63.8292 18.6766 64.0804C18.6358 64.3314 19.0854 64.75 19.5213 65.1268C19.7217 65.3 19.8329 65.482 19.9263 65.635C20.036 65.8147 20.1212 65.9542 20.2979 65.992C20.6248 66.0616 21.1016 65.992 21.2924 65.95C21.3664 65.9338 21.426 65.9533 21.4776 65.9702C21.5591 65.9968 21.6206 66.0169 21.6873 65.8802C21.7963 65.657 21.6057 65.4757 21.4422 65.364C21.389 65.3277 21.3099 65.287 21.2203 65.2408C21.0344 65.1452 20.8035 65.0263 20.6656 64.8757C20.6409 64.8487 20.614 64.8198 20.5859 64.7897C20.3816 64.5706 20.1137 64.2834 20.1616 64.1362C20.1812 64.076 20.2606 63.9708 20.3594 63.8399C20.5354 63.6067 20.773 63.292 20.8428 63.006C20.9517 62.5595 21.0063 62.2525 21.0063 62.2525C21.0063 62.2525 21.7568 62.3082 22.4107 62.4756C23.0647 62.6431 24.318 62.6291 24.318 62.6291C24.318 62.6291 24.1272 62.9639 23.9911 63.2151C23.9803 63.2349 23.9684 63.2566 23.9556 63.2798C23.8061 63.5507 23.5397 64.0336 23.6777 64.3034C23.8275 64.5965 24.4815 65.7823 24.8356 65.922C25.096 66.0246 25.3196 65.9989 25.501 65.9782C25.5663 65.9707 25.6262 65.9638 25.6803 65.9638C25.8846 65.9638 26.0073 65.908 25.8982 65.7127C25.8075 65.5499 25.6978 65.5034 25.5927 65.4682L25.5304 65.4475C25.5106 65.4408 25.4904 65.4347 25.4701 65.4286C25.3648 65.3971 25.2561 65.3646 25.1762 65.2243C25.0808 65.0568 24.9991 64.6243 24.9991 64.3593C24.9991 64.1766 25.3287 63.8219 25.6318 63.4957C25.7688 63.3483 25.9003 63.2067 25.9936 63.0894C26.2933 62.7128 26.3887 62.4896 26.3887 62.4896C26.3887 62.4896 26.4841 63.2987 26.5931 63.5918C26.7021 63.8848 27.4105 64.4709 27.8601 64.7918C28.1359 64.9886 28.2682 65.2117 28.3606 65.3677C28.4189 65.4659 28.4614 65.5375 28.514 65.5591C28.6502 65.615 29.0863 65.7057 29.2632 65.6499C29.4404 65.5941 29.5834 65.4825 29.42 65.3011C29.3125 65.1818 29.1756 65.0926 29.0576 65.0159C28.9961 64.9759 28.9398 64.9392 28.8955 64.9034C28.766 64.7987 27.9146 63.5709 27.8329 63.0407C27.7512 62.5104 27.7239 62.1896 27.7921 61.8686C27.8601 61.5477 27.9146 61.464 27.9146 61.464L27.9574 61.4217C28.0788 61.302 28.4274 60.9616 28.589 60.836C28.7866 60.6825 29.8356 60.515 30.0603 60.6476C30.106 60.6745 30.1444 60.7009 30.1789 60.7246C30.3144 60.8177 30.391 60.8704 30.619 60.7593C30.8545 60.6443 31.0624 60.4182 31.1665 60.305C31.1888 60.2807 31.2063 60.2617 31.2183 60.25C31.2569 60.2125 31.2703 60.2051 31.2852 60.197C31.2966 60.1907 31.3089 60.184 31.3342 60.1627C31.392 60.1138 31.4023 60.1034 31.3886 60.0442C31.3843 60.0253 31.3454 59.9528 31.2929 59.8551C31.18 59.6448 31.0044 59.3177 30.9765 59.1582C30.9642 59.0878 30.9606 59.0396 30.9576 59.0011C30.9509 58.9117 30.9481 58.875 30.8505 58.7361C30.7674 58.6177 30.5358 58.4177 30.3648 58.2701C30.2486 58.1698 30.1603 58.0936 30.1658 58.0837L30.1679 58.08C30.1898 58.0411 30.3192 57.812 30.3192 57.7313C30.3192 57.6477 29.7912 57.7873 29.7912 57.7873C29.7912 57.7873 29.8797 57.6687 29.8593 57.5012C29.8389 57.3338 29.7981 57.2396 29.7707 57.2361C29.7435 57.2326 29.3723 57.4942 29.2599 57.6268C29.1474 57.7594 29.0998 57.8116 29.0829 57.8151C29.0811 57.8155 29.07 57.8195 29.0507 57.8265C28.8783 57.8892 28.0572 58.1878 27.5363 58.1815C27.0767 58.176 26.3937 58.0693 25.8453 57.9836C25.703 57.9614 25.5699 57.9406 25.452 57.9233C25.2992 57.901 25.0342 57.8433 24.7021 57.771C23.7903 57.5727 22.3728 57.2643 21.3842 57.2746C20.0355 57.2885 18.7258 57.3422 18.5919 57.4011C17.9201 57.5701 15.2108 57.9264 14.2239 57.6665C12.8487 57.3042 12.4173 55.4235 13.7923 55.034ZM67.2473 60.8769L49.9648 19H41.0851L26.1626 55.3689C26.221 55.3296 26.2839 55.2862 26.3568 55.236C26.3921 55.2117 26.4297 55.1858 26.4703 55.1579C26.5884 55.0768 26.8003 54.9391 27.0496 54.7771C27.6784 54.3684 28.5453 53.805 28.7455 53.6051C29.0251 53.3259 29.5721 52.3821 29.7912 51.6304C30.0104 50.8788 30.5718 49.8354 30.7379 49.5586L30.7555 49.5292C30.9187 49.2578 31.1163 48.9289 31.1254 48.7179C31.1313 48.5802 31.2308 48.3715 31.3462 48.1295C31.4142 47.9869 31.4877 47.8327 31.5508 47.6748C31.6353 47.463 31.697 47.1802 31.7475 46.9481C31.7987 46.7132 31.8386 46.5302 31.8795 46.5252C31.961 46.5155 32.1724 46.9756 32.2812 47.2468C32.3899 47.518 32.6511 48.1048 32.695 48.1932C32.7351 48.2743 32.91 48.319 33.0616 48.3579C33.0754 48.3614 33.089 48.3649 33.1024 48.3684C33.1794 48.3884 33.3229 48.4609 33.4799 48.5402C33.6476 48.6249 33.8306 48.7173 33.9646 48.762C34.2242 48.8487 34.288 48.9079 34.4025 49.0214C34.4535 49.0719 34.4961 49.1357 34.5417 49.204C34.5988 49.2895 34.6607 49.3821 34.7497 49.4651C34.9098 49.6144 35.3044 49.6969 35.6301 49.7619C35.8028 49.7963 36.0162 49.8782 36.2225 49.9573C36.4055 50.0275 36.5829 50.0955 36.7211 50.1263C37.015 50.1917 36.981 50.289 36.9226 50.4447C36.8642 50.6006 36.6879 50.8842 36.547 51.046C36.5134 51.0847 36.4843 51.1239 36.4546 51.164C36.3599 51.2917 36.2593 51.4273 35.9882 51.5762C35.6789 51.7462 35.4226 51.7536 35.1843 51.7605C35.1483 51.7615 35.1127 51.7626 35.0774 51.7641C34.9759 51.7687 34.862 51.7863 34.7424 51.8047C34.545 51.8352 34.3322 51.868 34.1349 51.8485C33.9119 51.8265 33.7844 51.8424 33.6516 51.859C33.5957 51.866 33.539 51.8731 33.4737 51.8775C33.3095 51.8887 33.2822 51.9287 33.2457 51.9821C33.2333 52.0003 33.2197 52.0202 33.1993 52.0409C33.119 52.1225 32.9464 52.5575 32.9079 53.1987C32.8956 53.4038 32.8754 53.6461 32.8548 53.8933C32.8111 54.4186 32.7655 54.9657 32.7899 55.2246C32.8135 55.4738 32.9265 55.8172 33.0595 56.2213C33.1299 56.435 33.2058 56.6657 33.2771 56.9084C33.4332 57.44 33.4069 57.8852 33.3865 58.2313C33.38 58.3421 33.374 58.4427 33.3749 58.5328C33.378 58.8771 33.2067 59.3365 33.0733 59.694C33.0628 59.7223 33.0525 59.7499 33.0425 59.7768C33.0213 59.834 32.9481 60.0228 32.8397 60.3023C32.4104 61.4091 31.4291 63.9392 30.9349 65.3661L39.7614 65.3636V63.9345C36.2164 63.8016 34.4437 62.6494 34.4437 60.478C34.4437 59.7246 34.5989 58.9492 34.9091 58.1515L37.302 52.0361H52.8895L56.0802 59.7136C56.2573 60.1345 56.346 60.5888 56.346 61.0763C56.346 62.8488 54.3297 63.8016 50.2971 63.9345V65.3636H72V63.9345H71.734C69.5848 63.9345 68.0893 62.9152 67.2473 60.8769ZM38.3323 49.3773L44.8465 32.5601L51.7928 49.3773H38.3323Z" fill="white"/>
</svg>
